<svg width="68" height="58" viewBox="0 0 68 58" fill="none" xmlns="http://www.w3.org/2000/svg">
<path fill-rule="evenodd" clip-rule="evenodd" d="M57.75 0.125V8.375H67.25V13.875H57.75V22.0975C57.75 22.0975 51.4483 22.125 51.4167 22.0975V13.875H41.9167C41.9167 13.875 41.9483 8.40253 41.9167 8.375H51.4167V0.125H57.75ZM51.4167 52.375H7.08333V13.875H35.5833V8.375H7.08333C3.60006 8.375 0.75 10.85 0.75 13.875V52.375C0.75 55.4 3.60006 57.875 7.08333 57.875H51.4167C54.9 57.875 57.75 55.4 57.75 52.375V27.625H51.4167V52.375ZM26.7484 43.6575L20.5417 37.1675L11.8333 46.875H46.6667L35.4567 33.9225L26.7484 43.6575Z" fill="#43A0D6"/>
</svg>
